<svg xmlns="http://www.w3.org/2000/svg" xmlns:xlink="http://www.w3.org/1999/xlink" width="44" height="34" viewBox="0 0 44 34">
  <defs>
    <linearGradient id="linear-gradient" x2="1" y2="1" gradientUnits="objectBoundingBox">
      <stop offset="0" stop-color="#ffb200"/>
      <stop offset="1" stop-color="#ff9100"/>
    </linearGradient>
  </defs>
  <path id="folder" d="M3,34a3,3,0,0,1-3-3V8a3.017,3.017,0,0,1,.051-.551A2.005,2.005,0,0,1,0,7V2A2,2,0,0,1,2,0H21a2,2,0,0,1,2,2V5H41a3,3,0,0,1,3,3V31a3,3,0,0,1-3,3Z" fill="url(#linear-gradient)"/>
</svg>
